<?xml version="1.0" encoding="UTF-8" standalone="no"?>
<!-- Created with Inkscape (http://www.inkscape.org/) -->

<svg
   width="16"
   height="16"
   viewBox="0 0 4.2333332 4.2333333"
   version="1.1"
   id="svg1"
   xml:space="preserve"
   sodipodi:docname="drawing.svg"
   inkscape:version="1.4 (e7c3feb1, 2024-10-09)"
   xmlns:inkscape="http://www.inkscape.org/namespaces/inkscape"
   xmlns:sodipodi="http://sodipodi.sourceforge.net/DTD/sodipodi-0.dtd"
   xmlns="http://www.w3.org/2000/svg"
   xmlns:svg="http://www.w3.org/2000/svg"><sodipodi:namedview
     id="namedview1"
     pagecolor="#ffffff"
     bordercolor="#000000"
     borderopacity="0.25"
     inkscape:showpageshadow="2"
     inkscape:pageopacity="0.0"
     inkscape:pagecheckerboard="0"
     inkscape:deskcolor="#d1d1d1"
     inkscape:document-units="px"
     inkscape:zoom="21.440346"
     inkscape:cx="-2.4020135"
     inkscape:cy="22.131173"
     inkscape:window-width="1728"
     inkscape:window-height="978"
     inkscape:window-x="0"
     inkscape:window-y="38"
     inkscape:window-maximized="1"
     inkscape:current-layer="layer1" /><defs
     id="defs1" /><g
     inkscape:label="Layer 1"
     inkscape:groupmode="layer"
     id="layer1"><path
       d="M 2.1147129,1.1819253e-6 A 2.1166666,2.1166666 0 0 0 0.20442133,3.0241885 0.26458333,0.26458333 0 1 0 0.68067132,2.7966469 a 1.571625,1.571625 0 0 1 0,-1.3678958 A 1.5875981,1.5875981 0 0 1 3.5461087,2.7966469 0.26510209,0.26510209 0 1 0 4.0250046,3.0241885 2.1140208,2.1140208 0 0 0 2.1147129,1.1819253e-6 M 2.6438796,3.175001 a 0.52916666,0.52916666 0 1 1 -1.0583333,0 0.52916666,0.52916666 0 0 1 1.0583333,0 m 0.254,-1.4022916 A 0.13271433,0.13271433 0 1 0 2.6544629,1.6668761 L 2.2046713,2.6537719 A 0.52916666,0.52916666 0 0 1 2.4480879,2.762251 L 2.8978796,1.7753552 Z"
       id="path1"
       style="stroke-width:0.264583;fill:#0260df;fill-opacity:1" /></g></svg>
